# xmcd
#
# Track frame offsets:
#	150
#	13560
#	31415
#	46397
#	58535
#	67745
#	78657
#	97907
#	106380
#	121165
#
# Disc length: 1772 seconds
#
# Revision: 0
# Processed by: cddbd v1.5.1PL2 Copyright (c) Steve Scherf et al.
# Submitted via: audiograbber 1.83.01
#
DISCID=7306ea0a
DTITLE=Various Artist - All American Country [CD3]
DYEAR=2006
DGENRE=Country
TTITLE0=Waylon Jennings and Willie Nelson - Good Hearted Woman
TTITLE1=Waylon Jennings and Jessi Colter - Suspicious Minds
TTITLE2=Dolly Parton - But You Know I Love You
TTITLE3=Tammy Winette - Stand By Your Man
TTITLE4=Charley Pride - Kiss An Angel Good Mornin'
TTITLE5=Willie Nelson - Night Life
TTITLE6=Kris Kristofferson - Me And Bobby McGee
TTITLE7=Mel Tillis - I Ain't Never
TTITLE8=Jerry Reed - She Got The Goldmine (I Got The Shaft)
TTITLE9=Johnny Paycheck - Take This Job And Shove It
EXTD=Compilation
EXTT0=
EXTT1=
EXTT2=
EXTT3=
EXTT4=
EXTT5=
EXTT6=
EXTT7=
EXTT8=
EXTT9=
PLAYORDER=
